<svg width="16" height="16" viewBox="0 0 16 16" fill="none" xmlns="http://www.w3.org/2000/svg">
<path fill-rule="evenodd" clip-rule="evenodd" d="M15.4212 8.7216C15.3952 8.98902 15.4652 9.25691 15.6225 9.47472C15.8224 9.75206 15.8937 10.1173 15.7822 10.4683C15.6707 10.8189 15.4028 11.0764 15.0801 11.1874C14.825 11.2758 14.6138 11.4558 14.4801 11.6901C14.3539 11.9112 14.2169 12.1248 14.0695 12.3313C13.9117 12.5514 13.8366 12.8198 13.864 13.0896C13.8985 13.4293 13.777 13.7808 13.5054 14.0284C13.2337 14.2764 12.8732 14.3657 12.5382 14.3005C12.2722 14.2495 11.9982 14.3001 11.7643 14.4366C11.546 14.5646 11.3202 14.6818 11.0882 14.7876C10.843 14.8996 10.6441 15.0938 10.5335 15.34C10.3932 15.6513 10.1126 15.8946 9.75348 15.9735C9.39393 16.0529 9.03674 15.949 8.77877 15.7246C8.57608 15.5483 8.31528 15.4538 8.04644 15.4557H8.00014C7.75635 15.4557 7.51586 15.4439 7.27821 15.4208C7.01079 15.3952 6.7429 15.4652 6.52509 15.6225C6.24775 15.8224 5.88253 15.8932 5.53196 15.7822C5.18091 15.6707 4.92389 15.4028 4.81238 15.0801C4.7245 14.825 4.54402 14.6133 4.31015 14.4796C4.08903 14.3534 3.875 14.2164 3.66901 14.069C3.44836 13.9117 3.18 13.8366 2.91069 13.864C2.57051 13.898 2.21947 13.777 1.97142 13.5054C1.72337 13.2337 1.63455 12.8732 1.69928 12.5377C1.75078 12.2722 1.70022 11.9982 1.56321 11.7643C1.43517 11.546 1.31799 11.3202 1.21263 11.0882C1.10066 10.843 0.906473 10.6441 0.660316 10.5331C0.348958 10.3932 0.105636 10.1126 0.0262609 9.75348C-0.0526417 9.39393 0.0508293 9.03674 0.275253 8.77877C0.451956 8.57561 0.545978 8.31528 0.544561 8.04644C0.544088 8.03085 0.544088 8.01526 0.544088 8.00014C0.544088 7.75635 0.5559 7.51586 0.579051 7.27821C0.605037 7.01079 0.535111 6.7429 0.377779 6.52509C0.177451 6.24775 0.106581 5.88253 0.218084 5.53148C0.329114 5.18091 0.597005 4.92341 0.920174 4.81238C1.17484 4.7245 1.3865 4.54402 1.52021 4.30968C1.64636 4.08903 1.78338 3.875 1.93079 3.66901C2.08812 3.44836 2.16324 3.18 2.13631 2.91069C2.10182 2.57051 2.22325 2.21947 2.49492 1.97142C2.76612 1.72337 3.12661 1.63455 3.46206 1.69928C3.72806 1.75078 4.0021 1.70022 4.2355 1.56321C4.45425 1.43517 4.67962 1.31799 4.9116 1.21216C5.15729 1.10066 5.3562 0.906 5.46675 0.660316C5.60708 0.348486 5.88725 0.105163 6.2468 0.0262609C6.60635 -0.0526417 6.96354 0.0508293 7.22151 0.275253C7.4242 0.451484 7.685 0.545978 7.95337 0.544088H8.00014C8.24346 0.544088 8.48442 0.5559 8.7216 0.579051C8.98902 0.605037 9.25738 0.534639 9.47472 0.377779C9.75206 0.177451 10.1173 0.106581 10.4683 0.218084C10.8189 0.329114 11.0764 0.597005 11.1879 0.920174C11.2758 1.17484 11.4558 1.3865 11.6901 1.52021C11.9112 1.64636 12.1248 1.78338 12.3313 1.93079C12.5514 2.08812 12.8203 2.16324 13.0896 2.13631C13.4293 2.10182 13.7808 2.22277 14.0289 2.49445C14.2764 2.76612 14.3657 3.12661 14.301 3.46206C14.2495 3.72759 14.3001 4.00163 14.4366 4.2355C14.5646 4.45378 14.6818 4.67962 14.7876 4.9116C14.8996 5.15729 15.0938 5.35572 15.34 5.46675C15.6513 5.60708 15.8946 5.88725 15.9735 6.24633C16.0529 6.60588 15.949 6.96307 15.7246 7.22151C15.5483 7.4242 15.4538 7.68453 15.4557 7.95337V8.00014C15.4557 8.24346 15.4439 8.48442 15.4212 8.7216ZM8.07526 7.29569C8.06581 7.3297 8.03416 7.3538 7.99825 7.3538C7.96282 7.3538 7.93116 7.3297 7.92171 7.29569L6.62431 2.74296C6.53785 2.39759 6.79912 2.06355 7.15442 2.06355H8.84539C9.20116 2.06355 9.46244 2.39759 9.37597 2.74296L8.07526 7.29569ZM8.47497 7.47428C8.4471 7.49649 8.40788 7.49696 8.37859 7.47617C8.34977 7.45491 8.33843 7.41758 8.35071 7.38404L9.97696 2.93809C10.1102 2.60831 10.5179 2.49114 10.8057 2.69997L12.1735 3.69405C12.4612 3.90335 12.4759 4.32716 12.2032 4.55536L8.47497 7.47428ZM8.69325 7.85415C8.65735 7.85509 8.62522 7.83288 8.61435 7.79887C8.60301 7.76485 8.61624 7.72752 8.64601 7.70768L12.5746 5.06704C12.876 4.87806 13.2748 5.0231 13.3849 5.36139L13.9074 6.96968C14.017 7.30797 13.7799 7.65949 13.425 7.68406L8.69325 7.85415ZM8.64648 8.28929C8.61719 8.26945 8.60443 8.23212 8.6153 8.1981C8.62616 8.16409 8.65829 8.14188 8.6942 8.14282L13.425 8.31622C13.7799 8.34079 14.017 8.69183 13.9074 9.0306L13.3849 10.6384C13.2748 10.9767 12.876 11.1217 12.5746 10.9328L8.64648 8.28929ZM8.35308 8.61388C8.34079 8.58033 8.35213 8.54301 8.38142 8.52222C8.41025 8.50096 8.44946 8.5019 8.47781 8.52363L12.2032 11.4444C12.4759 11.6726 12.4612 12.0965 12.1735 12.3058L10.8057 13.2998C10.5179 13.5087 10.1102 13.3915 9.97696 13.0617L8.35308 8.61388ZM7.92455 8.70412C7.93447 8.6701 7.96565 8.64648 8.00156 8.64648C8.03747 8.64648 8.06865 8.6701 8.07857 8.70412L9.37597 13.2568C9.46244 13.6022 9.20116 13.9363 8.84539 13.9363H7.15442C6.79912 13.9363 6.53785 13.6022 6.62431 13.2568L7.92455 8.70412ZM7.52484 8.52553C7.55318 8.50332 7.5924 8.50285 7.62122 8.52363C7.65051 8.5449 7.66185 8.58269 7.64957 8.61577L6.02333 13.0617C5.89009 13.3915 5.48235 13.5087 5.19461 13.2998L3.82681 12.3058C3.53908 12.0965 3.52443 11.6726 3.79705 11.4444L7.52484 8.52553ZM7.30703 8.14613C7.34246 8.14471 7.37459 8.16739 7.38593 8.20094C7.3968 8.23543 7.38404 8.27228 7.35427 8.29212L3.42521 10.9328C3.12378 11.1217 2.72501 10.9767 2.6154 10.6384L2.09285 9.0306C1.98276 8.69183 2.22041 8.34079 2.57524 8.31622L7.30703 8.14613ZM7.35333 7.71051C7.3831 7.73036 7.39585 7.76768 7.38498 7.8017C7.37365 7.83572 7.34152 7.8584 7.30561 7.85698L2.57524 7.68406C2.22041 7.65949 1.98276 7.30797 2.09285 6.96968L2.6154 5.36139C2.72501 5.0231 3.12378 4.87806 3.42521 5.06704L7.35333 7.71051ZM7.52247 7.47617C7.55082 7.49838 7.59004 7.49885 7.61886 7.47806C7.64768 7.4568 7.65902 7.41947 7.64721 7.38593L6.02333 2.93809C5.89009 2.60831 5.48235 2.49114 5.19461 2.69997L3.82681 3.69405C3.53908 3.90335 3.52443 4.32716 3.79705 4.55536L7.52247 7.47617Z" fill="white"/>
</svg>
